HACHIKO A DOGS STORY DVDrip codec x264

Format                           : AVI
Format/Info                      : Audio Video Interleave
File size                        : 577 MiB
Duration                         : 1h 28mn
Overall bit rate                 : 909 Kbps
Writing application              : MEncoder SVN-r29352(20090610-gcc4.3.3)
Writing library                  : MPlayer

Video
ID                               : 0
Format                           : AVC
Format/Info                      : Advanced Video Codec
Format profile                   : Baseline@L2.1
Format settings, CABAC           : No
Format settings, ReFrames        : 1 frame
Codec ID                         : avc1
Duration                         : 1h 28mn
Bit rate                         : 768 Kbps
Width                            : 640 pixels
Height                           : 360 pixels
Display aspect ratio             : 1.856
Frame rate                       : 25.000 fps
Resolution                       : 24 bits
Colorimetry                      : 4:2:0
Scan type                        : Progressive
Bits/(Pixel*Frame)               : 0.133
Stream size                      : 488 MiB (85%)
Writing library                  : x264 core 67 r1163+17 7d945df

Audio
ID                               : 1
Format                           : MPEG Audio
Format version                   : Version 1
Format profile                   : Layer 3
Codec ID                         : 55
Codec ID/Hint                    : MP3
Duration                         : 1h 28mn
Bit rate mode                    : Constant
Bit rate                         : 128 Kbps
Channel(s)                       : 2 channels
Sampling rate                    : 44.1 KHz
Resolution                       : 16 bits
Stream size                      : 81.3 MiB (14%)
Alignment                        : Aligned on interleaves
Interleave, duration             : 26 ms (0.65 video frame)
Interleave, preload duration     : 522 ms
Writing library                  : LAME3.98

In 1924, Hachikō was brought to Tokyo by his owner, Hidesaburō Ueno, a professor in the agriculture department at the University of Tokyo. During his owner's life Hachikō saw him off from the front door and greeted him at the end of the day at the nearby Shibuya Station. The pair continued their daily routine until May 1925, when Professor Ueno did not return on the usual train one evening. The professor had suffered a stroke at the university that day. He died and never returned to the train station where his friend was waiting.

Hachikō was given away after his master's death, but he routinely escaped, showing up again and again at his old home. Eventually, Hachikō apparently realized that Professor Ueno no longer lived at the house. So he went to look for his master at the train station where he had accompanied him so many times before. Each day, Hachikō waited for Professor Ueno to return. And each day he did not see his friend among the commuters at the station.

The permanent fixture at the train station that was Hachikō attracted the attention of other commuters. Many of the people who frequented the Shibuya train station had seen Hachikō and Professor Ueno together each day. They brought Hachikō treats and food to nourish him during his wait. 
http://www.imdb.com/title/tt1028532/

PLEASE SEED AND ENJOY THANKS

screens  
http://img714.imageshack.us/img714/6168/vlcsnap2010020210h03m09.png
http://img715.imageshack.us/img715/2703/vlcsnap2010020210h03m22.png
http://img715.imageshack.us/img715/6598/vlcsnap2010020210h03m24.png
http://img64.imageshack.us/img64/6169/vlcsnap2010020210h03m42.png